<svg width="40" height="40" viewBox="0 0 40 40" fill="none" xmlns="http://www.w3.org/2000/svg"><path fill-rule="evenodd" clip-rule="evenodd" d="M40 20C40 9.015 31.087 0 20 0S0 9.015 0 20s8.913 20 20 20 20-9.015 20-20zM1.702 20C1.702 9.919 9.89 1.702 20 1.702 30.11 1.702 38.298 9.92 38.298 20c0 10.081-8.188 18.298-18.298 18.298C9.89 38.298 1.702 30.08 1.702 20zm14.508 3.058a.851.851 0 11-1.204 1.203L11 20.255l4.006-4.006a.851.851 0 111.204 1.204l-2.03 2.027h14.193c.47 0 .47 1.703 0 1.703H14.335l1.875 1.874z" fill="#fff"/></svg>