<svg width="28" height="28" viewBox="0 0 28 28" fill="none" xmlns="http://www.w3.org/2000/svg">
<g clip-path="url(#clip0_3158_32132)">
<path fill-rule="evenodd" clip-rule="evenodd" d="M13.2126 21.8672C18.0302 21.6683 21.8748 17.6998 21.8748 12.8334C21.8748 12.0875 21.7845 11.3628 21.6142 10.6694C23.363 11.942 24.4998 14.0049 24.4998 16.3333V20.9999C24.4998 22.2886 23.4552 23.3333 22.1665 23.3333H17.4998C15.8846 23.3333 14.3971 22.7862 13.2126 21.8672Z" fill="black"/>
<path fill-rule="evenodd" clip-rule="evenodd" d="M20.9998 12.8332C20.9998 17.3435 17.3435 20.9998 12.8332 20.9998H6.99984C5.71117 20.9998 4.6665 19.9552 4.6665 18.6665V12.8332C4.6665 8.32285 8.32285 4.6665 12.8332 4.6665C17.3435 4.6665 20.9998 8.32285 20.9998 12.8332ZM9.33317 13.9998C9.9775 13.9998 10.4998 13.4775 10.4998 12.8332C10.4998 12.1888 9.9775 11.6665 9.33317 11.6665C8.68884 11.6665 8.1665 12.1888 8.1665 12.8332C8.1665 13.4775 8.68884 13.9998 9.33317 13.9998ZM13.9998 12.8332C13.9998 13.4775 13.4775 13.9998 12.8332 13.9998C12.1888 13.9998 11.6665 13.4775 11.6665 12.8332C11.6665 12.1888 12.1888 11.6665 12.8332 11.6665C13.4775 11.6665 13.9998 12.1888 13.9998 12.8332ZM16.3332 13.9998C16.9775 13.9998 17.4998 13.4775 17.4998 12.8332C17.4998 12.1888 16.9775 11.6665 16.3332 11.6665C15.6888 11.6665 15.1665 12.1888 15.1665 12.8332C15.1665 13.4775 15.6888 13.9998 16.3332 13.9998Z" fill="black"/>
</g>
<defs>
<clipPath id="clip0_3158_32132">
<rect width="28" height="28" fill="white"/>
</clipPath>
</defs>
</svg>
