<svg width="239" height="16" viewBox="0 0 239 16" fill="none" xmlns="http://www.w3.org/2000/svg"><path d="M133.867.013h-3.577l-5.648 15.65h9.225l.565-1.32h-5.648l5.083-14.33zm49.142 0h-3.389l-5.652 15.65h9.229l.565-1.32h-5.837l5.084-14.33zm-79.646 7.544h-2.633l-.565 1.509h2.636l-2.451 6.598h10.171l.561-1.32h-6.775l2.068-5.278h4.334l.565-1.509h-4.519l2.259-6.038h6.775l.38-1.506h-10.167l-2.639 7.544zm-89.054 0H8.096L10.732.013h-3.39L4.517 7.557H.565L0 9.066h4.142l-2.447 6.598h3.577l2.256-6.598h6.217l-2.448 6.598h3.577L20.523.013h-3.58l-2.634 7.544zM39.16.013l-5.457 9.053h-3.765l-.754 1.32h3.575l-3.198 5.278h1.695l3.389-5.278h4.707l-.192-1.32h-3.762l3.012-4.904 1.883 11.502h3.39L41.232.013H39.16zm166.255 0l-5.46 9.053h-3.766l-.753 1.32h3.577l-3.203 5.278h1.694l3.392-5.278h4.707l-.188-1.32h-3.766l3.013-4.904 1.883 11.502h3.386L207.485.013h-2.071zm-49.33 0h-3.577l-2.824 7.544h-2.448l-.376 1.509h2.447l-2.447 6.6h6.025c5.03.03 7.851-2.269 7.907-4.903.135-1.556-1.114-2.848-2.635-3.017 2.463-.538 4.405-2.543 4.33-4.15.075-3.049-3.869-3.523-6.402-3.583zm-3.577 14.33h-1.506l1.936-5.497-.053.22h2.259c.948-.091 2.652-.327 2.636 1.886-.104 2.383-3.279 3.385-5.272 3.392zm2.26-6.786h-1.375l2.128-6.035c1.274-.148 3.746-.088 3.765 2.263-.022 2.36-2.667 3.835-4.518 3.772zM231.585.013h-3.577l-5.649 15.65h3.954c9.618.03 12.502-5.453 12.615-9.618.003-4.319-3.527-5.972-7.343-6.032zm3.766 7.167c-.537 5.686-6.069 7.157-9.038 7.167l4.707-12.825c4.265-.21 4.735 2.562 4.331 5.658zM85.291.013c-1.22-.057-4.158.29-5.272 3.583-.891 2.226.49 3.876 1.503 4.715 1.105.811 3.016 1.726 3.578 2.452.499.689.615 2.22-.189 3.018-1.01.896-3.637 1.53-6.778-.755l-.565 1.51c1.378 1.13 4.588 2.338 8.473.565 1.792-.82 4.409-5.627 1.13-7.921-.926-.77-3.399-2.125-4.143-2.64-.608-.428-.847-1.783.377-2.641 1.309-.912 4.164-.497 5.46.566l.565-1.32C87.836.044 86.66-.044 85.291.013zm-22.217 0c-1.302-.057-4.243.29-5.46 3.583-.785 2.226.596 3.876 1.694 4.715 1.023.811 2.934 1.726 3.39 2.452.602.689.721 2.22-.189 3.018-.904.896-3.533 1.53-6.59-.755l-.565 1.51c1.3 1.13 4.507 2.338 8.285.565 1.898-.82 4.515-5.627 1.318-7.921-1.01-.77-3.48-2.125-4.142-2.64-.694-.428-.926-1.783.376-2.641 1.227-.912 4.08-.497 5.272.566l.565-1.32C65.538.044 64.36-.044 63.074.013z" fill="#000"/></svg>