<svg width="28" height="28" viewBox="0 0 28 28" fill="none" xmlns="http://www.w3.org/2000/svg">
<path fill-rule="evenodd" clip-rule="evenodd" d="M7.15564 4.0835H20.8445L23.3334 11.0835C23.3334 13.0165 21.7664 14.5835 19.8334 14.5835C18.616 14.5835 17.5438 13.9619 16.9168 13.0189C16.2897 13.9619 15.2175 14.5835 14.0001 14.5835C12.7827 14.5835 11.7105 13.9619 11.0834 13.0189C10.4564 13.9619 9.38415 14.5835 8.16675 14.5835C6.23375 14.5835 4.66675 13.0165 4.66675 11.0835L7.15564 4.0835ZM8.16675 16.3346C7.27034 16.3346 6.45263 15.9976 5.83342 15.4434V21.0013C5.83342 22.2899 6.87808 23.3346 8.16675 23.3346H19.8334C21.1221 23.3346 22.1667 22.2899 22.1667 21.0013V15.4434C21.5475 15.9976 20.7298 16.3346 19.8334 16.3346C18.616 16.3346 17.5438 15.713 16.9168 14.77C16.2897 15.713 15.2175 16.3346 14.0001 16.3346C12.7827 16.3346 11.7105 15.713 11.0834 14.77C10.4564 15.713 9.38415 16.3346 8.16675 16.3346Z" fill="black"/>
</svg>
