<svg width="28" height="28" viewBox="0 0 28 28" fill="none" xmlns="http://www.w3.org/2000/svg">
<path fill-rule="evenodd" clip-rule="evenodd" d="M8.70796 4.12673C9.24118 4.05362 9.76363 4.31986 10.0178 4.79427L11.1624 6.93033C11.6628 7.8641 11.4926 9.01539 10.7435 9.76449L8.60835 11.8997C9.46004 13.2436 10.5493 14.6711 11.9344 16.0563C13.3183 17.4402 14.7461 18.5301 16.0901 19.3833L18.2262 17.2472C18.9753 16.4981 20.1266 16.3279 21.0604 16.8283L23.1979 17.9736C23.6698 18.2265 23.9359 18.7449 23.8665 19.2757L23.4487 22.4688C23.3254 23.4106 22.4057 24.1053 21.4167 23.8218C19.5676 23.2917 14.9105 21.6228 10.6392 17.3515C8.92274 15.635 7.62929 13.8588 6.66252 12.2303C5.22068 9.80151 4.50176 7.69497 4.18761 6.58822C3.90817 5.60379 4.59702 4.69038 5.53171 4.56223L8.70796 4.12673Z" fill="black" fill-opacity="0.85"/>
</svg>
