<svg width="24" height="24" viewBox="0 0 24 24" fill="none" xmlns="http://www.w3.org/2000/svg"><path fill-rule="evenodd" clip-rule="evenodd" d="M5.66 8.286a2.525 2.525 0 115.05 0 2.525 2.525 0 01-5.05 0zm2.526-4.125a4.125 4.125 0 00-2.8 7.154 25.59 25.59 0 00-.543.09 3.267 3.267 0 00-2.682 3.215v2.327c0 1.168.946 2.114 2.114 2.114h7.822a2.114 2.114 0 002.114-2.114V14.62a3.267 3.267 0 00-2.683-3.214c-.18-.033-.361-.063-.542-.09a4.125 4.125 0 00-2.8-7.154zM3.76 14.62c0-.806.576-1.496 1.368-1.64a17.087 17.087 0 016.113 0 1.667 1.667 0 011.369 1.64v2.327c0 .284-.23.514-.514.514H4.275a.514.514 0 01-.514-.514V14.62z" fill="#fff"/><path fill-rule="evenodd" clip-rule="evenodd" d="M17.304 8.39a1.694 1.694 0 100 3.387 1.694 1.694 0 000-3.388zm-3.294 1.693a3.294 3.294 0 115.8 2.136l.037.007a2.65 2.65 0 012.176 2.607v1.746c0 .986-.8 1.785-1.786 1.785h-5.866a1.78 1.78 0 01-1.288-.548c.204-.232.328-.536.328-.869V14.62a2.46 2.46 0 00-.361-1.285 2.647 2.647 0 011.711-1.11l.036-.006a3.28 3.28 0 01-.787-2.136zm5.55 3.717a12.613 12.613 0 00-4.513 0 1.05 1.05 0 00-.862 1.033v1.746c0 .102.083.185.185.185h5.867a.185.185 0 00.186-.185v-1.746a1.05 1.05 0 00-.863-1.033z" fill="#fff"/></svg>