<svg width="28" height="28" viewBox="0 0 28 28" fill="none" xmlns="http://www.w3.org/2000/svg">
<path d="M19.0601 10.527C18.8383 10.5103 18.6136 10.5018 18.3866 10.5018C14.3222 10.5018 11.0274 13.2282 11.0274 16.5914C11.0274 17.2849 11.1675 17.9514 11.4256 18.5724C11.2025 18.5871 10.9769 18.5946 10.7492 18.5946C9.64394 18.5946 8.93397 18.3988 7.96707 18.0784C7.71908 18.0073 6.89918 18.4156 5.50736 19.3035C5.40481 19.3538 5.30143 19.3445 5.19724 19.2757C5.09304 19.2069 5.06529 19.102 5.11399 18.961C5.48844 17.7574 5.59488 17.0893 5.43331 16.9568C3.45704 15.6825 2.33325 13.8644 2.33325 11.6305C2.33325 7.78441 6.1012 4.6665 10.7492 4.6665C14.9434 4.6665 18.4209 7.20526 19.0601 10.527ZM7.96707 10.5671C8.62009 10.5671 9.14947 10.0449 9.14947 9.40068C9.14947 8.7565 8.62009 8.23429 7.96707 8.23429C7.31404 8.23429 6.78466 8.7565 6.78466 9.40068C6.78466 10.0449 7.31404 10.5671 7.96707 10.5671ZM13.6009 10.5671C14.2539 10.5671 14.7833 10.0449 14.7833 9.40068C14.7833 8.7565 14.2539 8.23429 13.6009 8.23429C12.9479 8.23429 12.4185 8.7565 12.4185 9.40068C12.4185 10.0449 12.9479 10.5671 13.6009 10.5671Z" fill="black"/>
<path d="M18.6899 22.7127C19.6143 22.7127 20.2081 22.5487 21.0169 22.2803C21.2243 22.2207 21.91 22.5628 23.0742 23.3066C23.1599 23.3487 23.2464 23.3409 23.3336 23.2833C23.4207 23.2257 23.4439 23.1378 23.4032 23.0197C23.09 22.0113 23.001 21.4517 23.1361 21.3407C24.7891 20.2731 25.6675 18.788 25.6675 16.9166C25.6675 13.6945 22.5775 11.0444 18.6899 11.0444C14.8023 11.0444 11.6507 13.6565 11.6507 16.8786C11.6507 20.1007 14.8023 22.7127 18.6899 22.7127ZM21.0169 15.9876C20.4707 15.9876 20.0279 15.5502 20.0279 15.0105C20.0279 14.4708 20.4707 14.0333 21.0169 14.0333C21.563 14.0333 22.0058 14.4708 22.0058 15.0105C22.0058 15.5502 21.563 15.9876 21.0169 15.9876ZM16.3047 15.9876C15.7585 15.9876 15.3157 15.5502 15.3157 15.0105C15.3157 14.4708 15.7585 14.0333 16.3047 14.0333C16.8509 14.0333 17.2937 14.4708 17.2937 15.0105C17.2937 15.5502 16.8509 15.9876 16.3047 15.9876Z" fill="black"/>
</svg>
