<svg width="28" height="28" viewBox="0 0 28 28" fill="none" xmlns="http://www.w3.org/2000/svg">
<path fill-rule="evenodd" clip-rule="evenodd" d="M14 24.5C19.799 24.5 24.5 19.799 24.5 14C24.5 8.20101 19.799 3.5 14 3.5C8.20101 3.5 3.5 8.20101 3.5 14C3.5 19.799 8.20101 24.5 14 24.5ZM18.7176 10.3879C18.8224 10.0734 18.7406 9.72679 18.5062 9.49244C18.2719 9.25809 17.9252 9.17625 17.6108 9.28106L11.7775 11.2255C11.5162 11.3126 11.3112 11.5176 11.2241 11.7789L9.27961 17.6122C9.17481 17.9267 9.25664 18.2733 9.49099 18.5077C9.72535 18.742 10.072 18.8238 10.3864 18.719L16.2197 16.7746C16.481 16.6875 16.6861 16.4825 16.7731 16.2212L18.7176 10.3879ZM15.2512 15.2528L12.7459 12.7474L16.504 11.4947L15.2512 15.2528Z" fill="black"/>
</svg>
