<svg width="24" height="24" viewBox="0 0 24 24" fill="none" xmlns="http://www.w3.org/2000/svg"><path fill-rule="evenodd" clip-rule="evenodd" d="M9.485 8.286a2.525 2.525 0 115.05 0 2.525 2.525 0 01-5.05 0zm2.525-4.125a4.125 4.125 0 00-2.8 7.154c-.181.028-.362.058-.542.09a3.267 3.267 0 00-2.683 3.215v2.327c0 1.168.947 2.114 2.114 2.114h7.822a2.114 2.114 0 002.114-2.114V14.62a3.267 3.267 0 00-2.682-3.214 18.93 18.93 0 00-.543-.09 4.125 4.125 0 00-2.8-7.154zM7.585 14.62c0-.806.576-1.496 1.369-1.64a17.087 17.087 0 016.112 0 1.667 1.667 0 011.37 1.64v2.327a.515.515 0 01-.515.514H8.1a.514.514 0 01-.514-.514V14.62z" fill="#fff"/></svg>