<svg width="28" height="28" viewBox="0 0 28 28" fill="none" xmlns="http://www.w3.org/2000/svg">
<path fill-rule="evenodd" clip-rule="evenodd" d="M14.5108 13.42C16.7551 14.0351 18.1258 15.3853 18.1258 16.9905C18.1258 18.7757 16.5291 20.381 13.9384 21.2361C12.5526 21.6862 9.97688 21.7762 8.71162 21.4311C6.31665 20.7559 4.96101 19.4359 4.96101 17.7406C4.96101 16.8104 5.3677 16.0002 6.25643 15.1752C7.08485 14.3951 7.71748 14.0201 8.93756 13.615C10.7752 13 12.7485 12.9249 14.5108 13.42M10.3227 7.61455C8.63566 8.2146 7.00889 9.36979 5.26167 11.23C1.11941 15.6107 1.39054 19.7813 5.95453 22.0016C10.6993 24.3119 17.0859 23.5467 20.5654 20.2463C23.1713 17.786 22.8549 14.6955 19.8876 13.6454C19.3603 13.4654 19.1946 13.3303 19.27 13.1653C19.5411 12.5053 19.6315 11.7401 19.4809 11.2901C19.0139 9.86486 17.3118 9.53484 14.7813 10.39L13.7721 10.735L13.8624 9.72984C13.9679 8.5447 13.7118 7.89956 13.0039 7.53951C12.4164 7.23944 11.2867 7.26947 10.3227 7.61455" fill="black"/>
<path fill-rule="evenodd" clip-rule="evenodd" d="M9.94122 15.0294C8.45996 15.7483 7.66797 16.8496 7.66797 18.2262C7.66797 19.4805 8.19596 20.337 9.35458 20.9795C10.2492 21.4842 11.8919 21.4383 12.8893 20.903C14.1652 20.1994 15.0012 18.8993 15.0012 17.6297C14.9865 16.5896 14.1065 15.3506 13.0653 14.9071C12.2293 14.5399 10.8212 14.6012 9.94122 15.0294" fill="black"/>
<path fill-rule="evenodd" clip-rule="evenodd" d="M11.7579 17.69C12.0755 17.69 12.3329 17.461 12.3329 17.1785C12.3329 16.896 12.0755 16.667 11.7579 16.667C11.4403 16.667 11.1829 16.896 11.1829 17.1785C11.1829 17.461 11.4403 17.69 11.7579 17.69ZM11.03 18.3652C11.03 18.1559 10.9517 17.9189 10.8423 17.8213C10.5451 17.5564 9.65356 17.6261 9.30951 17.9329C8.96545 18.2396 8.88722 18.8951 9.18435 19.16C9.71618 19.6342 11.03 19.0624 11.03 18.3652Z" fill="white"/>
<path d="M24.077 6.58135C22.5463 4.98472 20.2888 4.37692 18.2049 4.79422V4.79422C17.7225 4.89098 17.417 5.33852 17.5199 5.78908C17.6228 6.24267 18.0956 6.52994 18.5779 6.43317C20.0604 6.13683 21.6651 6.56925 22.7521 7.70321C23.839 8.83718 24.1349 10.3824 23.6686 11.7371V11.7371C23.5174 12.1786 23.7747 12.6503 24.2442 12.7924C24.7137 12.9346 25.2154 12.6927 25.3665 12.2542V12.2512C26.0226 10.3491 25.6077 8.17494 24.077 6.58135" fill="black"/>
<path d="M21.9518 8.59714C20.9938 7.58862 19.5817 7.20405 18.281 7.47089C17.7483 7.57685 17.4097 8.07914 17.5212 8.58536C17.6368 9.09159 18.1612 9.41337 18.6898 9.30349V9.30349C19.3257 9.17399 20.0194 9.36236 20.486 9.85288C20.9525 10.3473 21.0806 11.0184 20.8782 11.607V11.607C20.7131 12.0975 20.9938 12.6273 21.5141 12.7882C22.0344 12.9451 22.5877 12.6783 22.757 12.1839C23.1658 10.9791 22.9098 9.60566 21.9518 8.59714" fill="black"/>
</svg>
