<?xml version="1.0" encoding="UTF-8"?>
<svg width="136px" height="136px" viewBox="0 0 136 136" version="1.1" xmlns="http://www.w3.org/2000/svg" xmlns:xlink="http://www.w3.org/1999/xlink">
    <title>User/guanjiakefu-man</title>
    <defs>
        <linearGradient x1="50%" y1="0%" x2="50%" y2="100%" id="linearGradient-1">
            <stop stop-color="#424242" offset="0%"></stop>
            <stop stop-color="#151115" offset="100%"></stop>
        </linearGradient>
    </defs>
    <g id="页面-1" stroke="none" stroke-width="1" fill="none" fill-rule="evenodd">
        <g id="默认头像" transform="translate(-100.000000, -970.000000)">
            <g id="User/guanjiakefu-man" transform="translate(100.000000, 970.000000)">
                <circle id="Oval" fill="#E1E8FA" cx="68" cy="68" r="68"></circle>
                <path d="M31,84 C33.209139,84 35,85.790861 35,88 L34.9994153,127.469712 C29.0634313,124.168701 23.6733114,120.004735 18.9985919,115.147351 L19,88 C19,85.790861 20.790861,84 23,84 L31,84 Z M115,84 C117.209139,84 119,85.790861 119,88 L119.000273,112.978706 C114.393637,118.198054 108.998286,122.704802 103.000723,126.312447 L103,88 C103,85.790861 104.790861,84 107,84 L115,84 Z" id="形状结合" fill="#FFFFFF"></path>
                <path d="M57.685424,75.3594355 L65.764,81.9999592 L70.299,81.9999592 L77.2293744,75.4081611 C77.598808,75.0567197 78.1735006,75.0395178 78.5632928,75.3682338 L86.2176744,81.8232558 L86.108,81.9999592 L104,82 C106.209139,82 108,83.790861 108,86 L108.000684,122.996312 C96.7757181,131.17465 82.9513695,136 68,136 C53.9243193,136 40.8475082,131.723331 29.9980801,124.398505 L30,86 C30,83.790861 31.790861,82 34,82 L49.894,81.9999592 L49.7823256,81.8232558 L56.3522578,75.4160464 C56.7172454,75.0600987 57.2915752,75.0357107 57.685424,75.3594355 Z" id="形状结合" fill="#FFFFFF"></path>
                <polygon id="Path" fill="#FFA56F" points="58 63 77.047619 63 77.047619 82 58 82"></polygon>
                <rect id="Rectangle" fill="#F3B996" x="57.878449" y="62.7348837" width="19.2779623" height="19.0883721"></rect>
                <path d="M57.685424,75.3594355 L65.764,81.9999592 L70.299,81.9999592 L77.2293744,75.4081611 C77.598808,75.0567197 78.1735006,75.0395178 78.5632928,75.3682338 L86.2176744,81.8232558 L86.108,81.9999592 C80.8690679,87.5771799 76.5198896,90.3657902 73.0604651,90.3657902 C69.3953488,90.3657902 65.484998,90.3657902 63.0223256,90.3657902 C57.6335152,90.3657902 53.2574067,87.5771799 49.894,81.9999592 L49.7823256,81.8232558 L56.3522578,75.4160464 C56.7172454,75.0600987 57.2915752,75.0357107 57.685424,75.3594355 Z" id="Path" fill="#D4EAFF"></path>
                <polygon id="Rectangle" fill="#006CD1" points="65.573093 81.8232558 70.3393256 81.8232558 71.0550869 90.8541623 64.6843256 90.8541623"></polygon>
                <rect id="Rectangle-Copy-5" fill="url(#linearGradient-1)" x="54.8427907" y="18.5209302" width="33.3990698" height="29.1348837" rx="4"></rect>
                <rect id="Rectangle-2" fill="#282628" x="47.7581395" y="13.4883721" width="33.3990698" height="34" rx="4"></rect>
                <path d="M55.8306977,12.5023256 C54.7261282,12.5023256 53.8306977,13.3977561 53.8306977,14.5023256 L53.8306977,14.5023256 L53.8306977,39.6372093 C53.8306977,40.7417788 54.7261282,41.6372093 55.8306977,41.6372093 L55.8306977,41.6372093 L53.8065116,41.6372093 C52.7019421,41.6372093 51.8065116,40.7417788 51.8065116,39.6372093 L51.8065116,14.5023256 C51.8065116,13.3977561 52.7019421,12.5023256 53.8065116,12.5023256 Z" id="Combined-Shape-Copy-2" fill="#797272"></path>
                <path d="M52.8186047,38.6093023 L52.8186047,48.655814 L46.6976744,48.655814 C44.4885354,48.655814 42.6976744,46.864953 42.6976744,44.655814 L42.6976744,42.6093023 C42.6976744,40.4001633 44.4885354,38.6093023 46.6976744,38.6093023 L52.8186047,38.6093023 Z M89.3023256,38.6093023 C91.5114646,38.6093023 93.3023256,40.4001633 93.3023256,42.6093023 L93.3023256,42.6093023 L93.3023256,44.655814 C93.3023256,46.864953 91.5114646,48.655814 89.3023256,48.655814 L89.3023256,48.655814 L83.1813953,48.655814 L83.1813953,38.6093023 Z" id="Combined-Shape" fill="#F6BE9D"></path>
                <path d="M71.084738,90.3657902 L73.0604651,134.883721 L62.9395349,134.883721 L62.9395349,134.883721 L64.7273256,90.3657902 L71.084738,90.3657902 Z" id="形状结合" fill="#006CD1"></path>
                <path d="M65.975814,68.7627907 C60.9153488,68.7627907 52.8186047,59.7209302 51.8065116,57.7116279 C51.1317829,56.372093 50.7944186,54.3627907 50.7944186,51.6837209 L50.7944186,27.5581395 C50.7944186,25.3387255 52.6069365,23.5395349 54.8427907,23.5395349 L81.1572093,23.5395349 C83.3253103,23.5395349 85.0953431,25.2313358 85.2006269,27.3575706 L85.2055814,27.5581395 L85.2055814,51.6837209 C85.2055814,54.3627907 84.8682171,56.372093 84.1934884,57.7116279 C83.2148156,59.6545811 75.6116509,68.1733168 70.5350582,68.7337921 C70.5166126,68.7534028 70.4988706,68.7627907 70.4814057,68.7627907 L65.975814,68.7627907 Z" id="Path-Copy-2" fill="#FFD0B6"></path>
                <path d="M59.7722669,56.9302326 L77.8090728,56.9302326 C78.3613826,56.9301871 78.8091182,57.3779227 78.8091182,57.9302326 C78.8091182,58.0239555 78.7959431,58.1172132 78.7699797,58.2072681 C77.495677,62.6272289 74.1692497,64.8372093 68.7906977,64.8372093 C63.4121273,64.8372093 60.0856956,62.6272138 58.8114026,58.2072228 C58.6584413,57.6765595 58.9646003,57.1223562 59.4952557,56.9693671 C59.5853028,56.9434063 59.6785522,56.9302326 59.7722669,56.9302326 Z" id="Rectangle" fill="#FF9090"></path>
                <path d="M68.7906977,59.8953488 C72.4254621,59.8953488 75.1230411,60.5335679 76.8834346,61.810006 C75.1212818,63.8285907 72.4242769,64.8372093 68.7906977,64.8372093 C65.157106,64.8372093 62.4600951,63.8285839 60.699665,61.811333 C62.4580203,60.5336469 65.1557082,59.8953488 68.7906977,59.8953488 Z" id="形状结合" fill="#F96060"></path>
                <rect id="矩形" fill="#DAE0E9" x="82" y="107" width="19" height="5"></rect>
                <path d="M46.75,46 L46.75,31 C46.75,19.2639491 56.2639491,9.75 68,9.75 C79.7360509,9.75 89.25,19.2639491 89.25,31 L89.25,46 L90.75,46 L90.75,31 C90.75,18.4355219 80.5644781,8.25 68,8.25 C55.4355219,8.25 45.25,18.4355219 45.25,31 L45.25,46 L46.75,46 Z" id="路径" fill="#FF9810" fill-rule="nonzero"></path>
                <path d="M68,37.5 C79.8741221,37.5 89.5,47.1258779 89.5,59 L89.5,74 L90.5,74 L90.5,59 C90.5,46.5735931 80.4264069,36.5 68,36.5 L68,37.5 Z" id="路径" fill="#485666" fill-rule="nonzero" transform="translate(79.250000, 55.250000) scale(1, -1) translate(-79.250000, -55.250000) "></path>
                <rect id="矩形" fill="#0B1D32" x="65" y="72" width="7" height="4" rx="1.5"></rect>
                <path d="M89,34 L92.5,34 C95.5375661,34 98,36.4624339 98,39.5 L98,46.5 C98,49.5375661 95.5375661,52 92.5,52 L89,52 C87.8954305,52 87,51.1045695 87,50 L87,36 C87,34.8954305 87.8954305,34 89,34 Z" id="矩形" fill="#FF9810"></path>
                <path d="M40,34 L43.5,34 C46.5375661,34 49,36.4624339 49,39.5 L49,46.5 C49,49.5375661 46.5375661,52 43.5,52 L40,52 C38.8954305,52 38,51.1045695 38,50 L38,36 C38,34.8954305 38.8954305,34 40,34 Z" id="矩形备份" fill="#FF9810" transform="translate(43.500000, 43.000000) scale(-1, 1) translate(-43.500000, -43.000000) "></path>
                <rect id="矩形" fill="#FFB758" x="45" y="37" width="1.5" height="11"></rect>
                <rect id="矩形备份-2" fill="#FFB758" x="89" y="37" width="1.5" height="11"></rect>
            </g>
        </g>
    </g>
</svg>